HIERARCHY
ROOT hip
{
	OFFSET 0.000000 0.000000 0.000000 
	CHANNELS 6 Xposition Yposition Zposition Xrotation Zrotation Yrotation
	JOINT abdomen
	{
		OFFSET 0.000000 3.402643 0.000000 
		CHANNELS 3 Xrotation Zrotation Yrotation
		JOINT chest
		{
			OFFSET 0.000000 8.438565 -0.680529 
			CHANNELS 3 Xrotation Zrotation Yrotation
			JOINT neck
			{
				OFFSET 0.000000 10.207942 -0.272212 
				CHANNELS 3 Xrotation Zrotation Yrotation
				JOINT head
				{
					OFFSET 0.000000 3.130431 0.000000 
					CHANNELS 3 Xrotation Zrotation Yrotation
					End Site
					{
						OFFSET 0.000000 3.130435 0.000000 
					}
				}
			}
			JOINT lCollar
			{
				OFFSET 3.470700 6.669187 -0.816635 
				CHANNELS 3 Yrotation Zrotation Xrotation
				JOINT lShldr
				{
					OFFSET 3.198488 0.000000 0.000000 
					CHANNELS 3 Zrotation Yrotation Xrotation
					JOINT lForeArm
					{
						OFFSET 10.139888 0.000000 0.000000 
						CHANNELS 3 Yrotation Zrotation Xrotation
						JOINT lHand
						{
							OFFSET 8.370511 0.000000 0.000000 
							CHANNELS 3 Zrotation Yrotation Xrotation
							End Site
							{
								OFFSET 4.083176 0.000000 0.000000 
							}
						}
					}
				}
			}
			JOINT rCollar
			{
				OFFSET -3.470700 6.669187 -0.816635 
				CHANNELS 3 Yrotation Zrotation Xrotation
				JOINT rShldr
				{
					OFFSET -3.198488 0.000000 0.000000 
					CHANNELS 3 Zrotation Yrotation Xrotation
					JOINT rForeArm
					{
						OFFSET -10.139888 0.000000 0.000000 
						CHANNELS 3 Yrotation Zrotation Xrotation
						JOINT rHand
						{
							OFFSET -8.370511 0.000000 0.000000 
							CHANNELS 3 Zrotation Yrotation Xrotation
							End Site
							{
								OFFSET -4.083176 0.000000 0.000000 
							}
						}
					}
				}
			}
		}
	}
	JOINT lThigh
	{
		OFFSET 5.308129 -1.633274 1.361059 
		CHANNELS 3 Xrotation Zrotation Yrotation
		JOINT lShin
		{
			OFFSET -2.041588 -20.007561 0.000000 
			CHANNELS 3 Xrotation Zrotation Yrotation
			JOINT lFoot
			{
				OFFSET 0.000000 -19.190928 -1.224953 
				CHANNELS 3 Xrotation Yrotation Zrotation
				End Site
				{
					OFFSET 0.000000 -2.449906 4.627600 
				}
			}
		}
	}
	JOINT rThigh
	{
		OFFSET -5.308129 -1.633274 1.361059 
		CHANNELS 3 Xrotation Zrotation Yrotation
		JOINT rShin
		{
			OFFSET 2.041588 -20.007561 0.000000 
			CHANNELS 3 Xrotation Zrotation Yrotation
			JOINT rFoot
			{
				OFFSET 0.000000 -19.190928 -1.224953 
				CHANNELS 3 Xrotation Yrotation Zrotation
				End Site
				{
					OFFSET 0.000000 -2.449906 4.627600 
				}
			}
		}
	}
}
MOTION
Frames: 14
Frame Time: 0.033333
-8.581494 38.861191 -34.425213 10.712891 -11.611328 54.658203 29.091797 6.152344 -4.139578 -21.875000 -0.175781 -5.546875 -18.945313 -5.048828 -20.440311 9.501953 1.923828 -21.054359 5.000000 16.572264 0.722657 -115.390625 -56.855473 86.534790 -70.634766 -2.949219 -30.321764 0.498047 35.341797 -0.644531 -7.382812 -2.402344 0.029706 51.308598 30.605467 -10.073153 55.019531 3.613281 -56.220699 -7.343750 -21.123047 1.845703 -27.265797 44.617687 27.622974 61.240707 0.227804 -3.460217 -15.293303 -10.269562 -8.541618 -67.758415 -27.049044 2.641266 62.629486 -0.888382 3.460460 -5.259691 6.279217 5.363214 
-8.571891 38.723537 -34.064537 11.601563 -11.787108 53.925781 29.462893 6.542969 -3.641465 -21.347656 -0.351563 -5.351622 -19.316406 -5.380859 -20.224609 8.095704 1.738281 -21.122751 5.009766 16.044922 0.778551 -108.730469 -53.740231 82.294922 -70.078125 -2.958984 -31.972153 -0.537109 33.906246 -1.230469 -6.855469 -1.513672 -0.019273 54.316410 27.724611 -4.536471 56.005859 3.662110 -58.711563 -9.189452 -18.886719 2.281997 -26.035702 44.108192 28.995543 60.179062 0.383788 -3.516890 -15.898711 -9.780277 -8.338442 -69.887634 -26.707552 3.589317 64.400002 -0.712863 3.300541 -5.452017 7.187280 5.581909 
-8.514859 38.646942 -33.799068 12.480469 -11.787109 52.871098 29.638670 6.718750 -3.027344 -21.171875 0.000000 -5.000000 -19.687502 -5.888671 -20.000002 6.689453 1.386719 -21.015625 5.068359 15.156033 0.690836 -103.359375 -49.941406 78.713234 -70.283203 -3.027344 -33.436985 -0.517578 33.027344 -1.132813 -6.337891 -0.615234 -0.087891 56.503906 25.019529 -0.546875 56.562500 3.574219 -59.043575 -10.498048 -18.085938 2.539063 -24.629519 42.686134 29.470654 58.759995 0.218361 -3.677696 -18.599197 -6.331225 -7.647994 -71.471825 -26.532564 3.492172 65.617462 -1.230148 3.226729 -5.515967 8.186761 5.831442 
-8.427951 38.632717 -33.568459 13.007813 -11.787110 51.990192 30.000000 7.109375 -2.528088 -21.347654 0.527344 -4.472560 -19.726563 -6.025391 -19.619141 5.283204 0.849609 -20.908056 4.941407 14.609375 0.573709 -100.000000 -46.308594 76.386719 -71.142578 -3.046875 -33.828129 -0.214844 32.509766 -0.996094 -5.810547 0.097656 -0.185547 58.242184 23.037107 1.894531 56.601566 3.642578 -58.652966 -10.234375 -17.597658 2.382812 -23.750170 41.224659 28.231184 57.930523 -0.123389 -3.317307 -20.240648 -3.140005 -6.501839 -72.094162 -26.326567 3.549246 66.161491 -0.888675 3.093924 -5.827531 8.982100 5.636450 
-8.329899 38.671368 -33.354099 13.349609 -11.787110 51.328125 30.185547 7.451173 -1.865234 -21.875000 0.703125 -4.140625 -19.189453 -5.859375 -19.629900 4.238281 0.312500 -20.615236 4.443359 14.238279 0.566406 -97.578125 -43.085941 74.719894 -72.460938 -3.085938 -32.987755 0.703125 32.880863 -0.551338 -5.273438 0.625000 -0.136719 59.687500 20.976561 3.421465 55.976566 3.574219 -57.900997 -9.628906 -17.119141 2.204158 -23.046885 39.898792 26.755840 57.052704 -0.211051 -3.309485 -20.336876 -0.541521 -5.343960 -72.368141 -26.004469 3.518688 66.498169 -1.064220 3.345062 -6.173498 8.657598 5.910762 
-8.201375 38.743454 -33.192730 13.710938 -11.611327 50.615238 30.009764 7.460938 -1.308565 -21.875000 0.527344 -3.789056 -19.560547 -5.839844 -19.463886 4.062500 -0.039063 -20.625006 4.453125 13.886719 0.595703 -95.468750 -41.386719 73.515625 -73.447266 -2.958985 -31.151836 0.068359 33.046871 -0.771484 -5.449219 0.976563 -0.097656 61.660152 19.931641 4.179688 55.273438 3.623047 -56.543587 -8.974609 -16.650391 1.901499 -21.982740 38.669918 26.456356 55.956512 0.081769 -3.454180 -20.461302 1.265268 -4.901802 -72.481903 -25.632515 3.846119 66.683479 -1.074133 3.346199 -6.477922 9.376575 5.867512 
-8.054591 38.850163 -33.079029 14.228516 -11.250000 49.919971 29.814451 7.236329 -1.201172 -22.050781 0.527344 -3.447170 -19.580078 -5.996094 -19.268599 3.886719 -0.390625 -20.283270 4.140625 13.349609 0.554386 -93.886719 -40.166012 72.216789 -73.691406 -2.900391 -30.009764 -1.298828 33.710938 -1.582031 -5.976563 0.800781 -0.107558 63.525391 19.316404 4.707032 54.619141 3.593750 -55.469364 -8.730468 -16.328127 1.706239 -20.752220 37.448631 26.643137 54.733475 -0.084106 -3.314689 -20.815254 2.365458 -4.451989 -72.674042 -25.644054 3.874871 66.497353 -1.073137 3.358702 -6.303887 9.412420 6.046098 
-7.901524 38.982952 -32.971249 14.580077 -10.898437 49.570316 29.462893 7.236329 -1.199942 -22.050781 0.175781 -3.447234 -19.433596 -6.132813 -18.896482 3.710938 -0.566406 -19.941439 4.140625 12.822266 0.593536 -92.363281 -39.267582 70.996094 -73.789063 -2.939453 -28.856920 -2.373047 34.179688 -2.158203 -6.328125 0.800781 -0.107422 65.556641 19.121094 4.736328 53.730469 3.623047 -54.921875 -8.955078 -16.123047 1.852757 -19.707373 36.539890 26.622444 53.855217 -0.376961 -3.404708 -20.438347 3.301405 -3.881673 -72.564537 -25.497126 4.407881 66.327370 -0.888719 3.100863 -6.614745 10.060366 6.199310 
-7.747390 39.127724 -32.863476 14.931641 -10.556643 49.042973 29.111328 7.119141 -1.414805 -21.875000 -0.527344 -3.613281 -19.462891 -5.742188 -18.584961 3.544922 -0.917969 -19.599764 4.365234 12.109376 0.437404 -90.664063 -38.779297 70.413803 -73.671875 -2.910156 -29.082029 -2.968750 34.150391 -2.514049 -6.679687 0.976563 -0.078291 67.236328 19.042967 5.419922 52.773438 3.623047 -53.847652 -9.375000 -16.445313 2.048017 -18.300856 35.420200 26.944128 52.466175 -0.105480 -3.052208 -20.070259 3.648621 -3.871183 -72.221619 -25.496782 4.836199 65.985855 -0.888821 3.086468 -6.711948 10.072425 6.023806 
-7.624674 39.281384 -32.754749 15.117188 -10.205079 48.826393 28.593750 7.226563 -1.756584 -22.050783 -0.703125 -3.798828 -19.511719 -5.683594 -18.066404 3.544922 -1.093750 -19.248234 4.238281 10.869141 0.369252 -88.369141 -37.929691 69.515480 -73.251953 -2.880860 -29.335936 -3.242188 33.769787 -2.748512 -6.679688 0.800781 -0.097656 68.681633 19.267580 5.888671 51.445313 3.662110 -51.885391 -9.140625 -16.474609 1.845703 -17.422009 34.270954 26.922726 51.236858 -0.278976 -3.063688 -19.810669 4.392544 -3.636914 -71.862976 -25.497538 5.098636 65.800018 -0.898465 3.082356 -6.676579 9.904475 5.965028 
-7.534448 39.416191 -32.658360 15.458984 -10.029297 48.505863 28.232422 6.953125 -2.031250 -22.402344 -1.054688 -3.984375 -19.189453 -5.478516 -17.715776 3.544922 -1.269531 -18.720921 4.062500 10.166015 0.457261 -86.552734 -36.835938 68.632813 -73.212891 -2.998047 -29.121096 -3.378906 33.242188 -2.738786 -6.679687 0.625000 -0.127060 69.726563 19.013672 6.630859 50.595703 3.554688 -50.136715 -9.130859 -16.298828 1.842964 -16.543385 33.647678 27.377176 50.173256 -0.288547 -3.016289 -19.510559 5.209965 -3.364845 -71.788704 -25.124882 5.569402 65.449272 -0.879017 3.069954 -6.638873 9.535018 5.752116 
-7.487612 39.509624 -32.570267 15.634766 -10.029297 48.152596 27.880859 6.894531 -2.420702 -22.753906 -1.054688 -4.170102 -19.033203 -5.087891 -17.412109 3.369141 -1.445313 -18.379152 4.101563 9.628906 0.322266 -85.380859 -35.927734 68.095703 -73.574219 -2.929688 -28.524893 -3.945312 32.841797 -3.100173 -6.328125 0.625000 -0.126953 70.234375 18.251955 7.444466 50.703125 3.427734 -50.136723 -9.853516 -15.546875 2.021484 -16.016207 32.930374 27.210516 49.292198 -0.288404 -3.312677 -19.423479 5.839760 -3.209451 -71.788696 -25.124886 5.569403 65.449272 -0.879021 3.069952 -6.510339 9.549668 5.979820 
-7.484649 39.578033 -32.509087 15.996095 -10.205079 47.947483 27.705078 6.728516 -2.470703 -23.105469 -1.044922 -4.355648 -19.052734 -5.068359 -17.237190 3.369141 -1.445313 -18.203369 3.925781 9.101563 0.389080 -84.462891 -34.892578 67.441406 -74.150391 -2.880859 -28.271486 -3.652344 32.871090 -2.871094 -5.976563 0.625000 -0.126953 70.146484 17.343750 8.284163 51.376953 3.505859 -50.585934 -10.244140 -15.156250 2.165417 -16.201429 32.542953 26.479404 49.128819 -0.454280 -3.028136 -19.104448 6.479145 -3.250202 -71.993721 -25.125067 5.604451 65.286095 -0.898222 3.234786 -6.333634 9.710011 5.819890 
-7.558516 39.611115 -32.464737 16.162109 -10.380860 47.988274 27.705078 6.777344 -2.636719 -23.281252 -1.044922 -4.365234 -19.589844 -4.873047 -17.080904 3.544922 -1.269531 -18.017794 3.750000 8.925781 0.429687 -83.750000 -34.072269 66.723045 -74.550774 -2.880859 -27.851072 -3.808594 32.685841 -2.856099 -5.976563 0.625000 -0.126953 69.921875 16.835938 9.319238 52.607426 3.564453 -51.367794 -10.976563 -14.755860 2.285156 -17.070112 32.735447 26.099915 49.635517 -0.453590 -3.072472 -18.599512 7.022394 -2.771080 -71.960411 -25.126314 5.252029 65.100342 -0.897341 3.237288 -6.367255 10.062700 6.003151 
